:SAMPLES-PER-SECOND 30
:FULLY-SPECIFIED
:DEGREES
330
root  -2.13696 36.2951 -33.0506 -170.602 -85.273 171.783
RightUpLeg  -27.3993 -27.4557 -13.7978
RightLeg  38.7257 -4.52353 -4.09897
RightFoot  -6.19881 -0.744848 15.6024
RightToes  -1.33073e-015 0 -3.6325e-017
Spine  25.7314 0.882437 1.30405
Spine1  -16.1409 1.35983 -3.91777
HEad  -23.2019 11.447 -9.66264
LeftShoulder1  0.271643 7.59071 16.8975
LeftArm  -69.8485 -6.27495 -12.2282
LeftForeArm  -18.9725 -71.0453 -40.5358
LeftHand  0.00291241 5.38027 32.8262
RightShoulder  -0.0208118 -4.77314 -7.31338
RightArm  -71.6484 -1.13065 8.04913
RightForeArm  -23.8333 70.616 39.0516
RightHand  -2.61065 1.34721 -43.0952
LeftUpLeg  -21.8923 29.3253 15.0378
LeftLeg  42.1646 7.04764 7.08081
LeftFoot  -7.27628 0.735232 -19.3842
LeftToes  -4.0021e-011 8.38769e-011 -3.99229e-011
331
root  -2.68507 37.5242 -33.7018 -170.833 -84.9429 172.197
RightUpLeg  -22.7341 -23.3017 -12.7623
RightLeg  31.5889 -8.89773 -6.07136
RightFoot  -3.47928 -0.954014 13.5354
RightToes  -1.33073e-015 0 -3.6325e-017
Spine  23.5719 0.881897 1.22377
Spine1  -17.5981 1.26834 -3.89338
HEad  -16.8694 13.1774 -7.59265
LeftShoulder1  -0.00760139 4.58397 8.32367
LeftArm  -61.0655 -2.03484 -18.6756
LeftForeArm  28.5677 -77.9564 -84.3352
LeftHand  -0.11843 4.95853 32.765
RightShoulder  0.0339434 -3.13847 -0.546963
RightArm  -63.3939 -4.53499 15.824
RightForeArm  5.76907 76.3312 61.993
RightHand  -2.61454 1.66488 -42.651
LeftUpLeg  -17.7502 24.5538 15.3743
LeftLeg  35.1837 14.2576 10.8998
LeftFoot  0.368719 1.81937 -17.9203
LeftToes  -4.0021e-011 8.38769e-011 -3.99229e-011
332
root  -3.24704 38.5542 -34.3235 -165.142 -84.4898 166.879
RightUpLeg  -18.3479 -19.6547 -12.298
RightLeg  24.0571 -13.2205 -6.59753
RightFoot  0.385188 -1.20958 11.7509
RightToes  -1.33073e-015 0 -3.6325e-017
Spine  21.0716 1.19642 -0.841756
Spine1  -18.1968 1.14536 -1.58753
HEad  -12.9353 14.8157 -5.99818
LeftShoulder1  0.134234 2.3378 -3.46207
LeftArm  -53.3153 3.09465 -21.5697
LeftForeArm  55.6162 -77.4909 -106.48
LeftHand  -0.342849 4.15611 32.2123
RightShoulder  0.332586 -1.32627 7.70241
RightArm  -56.5346 -8.4153 20.9089
RightForeArm  34.5586 77.8506 75.1391
RightHand  -3.58773 8.47676 -29.4218
LeftUpLeg  -15.3473 21.9089 14.1032
LeftLeg  30.9994 20.4624 13.1764
LeftFoot  5.98631 2.06351 -13.6217
LeftToes  -4.0021e-011 8.38769e-011 -3.99229e-011
333
root  -3.69402 39.1482 -34.9044 -157.7 -84.6854 159.203
RightUpLeg  -14.4749 -18.6789 -12.3701
RightLeg  18.7535 -15.4758 -5.98886
RightFoot  2.65639 -1.32553 10.8926
RightToes  -1.33073e-015 0 -3.6325e-017
Spine  19.4119 1.21731 -2.88029
Spine1  -17.9287 0.844144 0.4104
HEad  -10.3653 16.0952 -4.56972
LeftShoulder1  0.623667 0.532227 -14.1498
LeftArm  -49.7053 7.81986 -22.486
LeftForeArm  53.8272 -77.6841 -102.705
LeftHand  -0.609134 3.0969 30.481
RightShoulder  0.78849 0.140906 15.0381
RightArm  -53.5661 -13.2489 24.0457
RightForeArm  43.4086 78.1787 77.9518
RightHand  -3.44855 12.2408 -22.8005
LeftUpLeg  -15.3268 24.088 11.8995
LeftLeg  31.716 19.7214 12.9711
LeftFoot  5.2226 1.65203 -11.546
LeftToes  -4.0021e-011 8.38769e-011 -3.99229e-011
334
root  -3.872 39.1759 -35.3577 -157.403 -85.3997 158.179
RightUpLeg  -13.3133 -20.4915 -12.0219
RightLeg  19.3375 -14.5338 -5.75485
RightFoot  1.66691 -1.26155 11.1553
RightToes  -1.33073e-015 0 -3.6325e-017
Spine  19.4202 0.887677 -2.3015
Spine1  -17.1448 0.615939 -0.220603
HEad  -9.28136 15.858 -3.95404
LeftShoulder1  1.10332 -0.950654 -18.4217
LeftArm  -49.0112 11.0628 -24.9099
LeftForeArm  44.4252 -77.8805 -95.4958
LeftHand  -0.696208 2.67017 29.3673
RightShoulder  1.04979 0.746925 18.3357
RightArm  -54.8531 -18.1519 27.8533
RightForeArm  49.1629 78.3708 82.9775
RightHand  -2.65299 15.9164 -14.7264
LeftUpLeg  -17.6741 28.4815 9.83635
LeftLeg  37.7391 13.9739 11.6465
LeftFoot  -1.11773 1.2095 -13.6001
LeftToes  -4.0021e-011 8.38769e-011 -3.99229e-011
335
root  -3.8025 38.552 -35.7148 -163.646 -85.8807 163.671
RightUpLeg  -16.2353 -23.1228 -11.423
RightLeg  27.0205 -11.115 -6.28004
RightFoot  -2.26739 -0.975114 12.0753
RightToes  -1.33073e-015 0 -3.6325e-017
Spine  20.3915 0.50412 -0.404078
Spine1  -15.7718 0.574656 -2.17106
HEad  -10.6179 14.8486 -4.33793
LeftShoulder1  1.00614 -0.954905 -15.6291
LeftArm  -49.4173 11.5442 -29.1786
LeftForeArm  41.9665 -77.7541 -96.6663
LeftHand  -0.541076 3.30697 29.8757
RightShoulder  0.88819 0.29882 16.707
RightArm  -57.7223 -19.6101 31.1318
RightForeArm  51.0805 78.3277 88.7514
RightHand  -2.26133 17.101 -12.028
LeftUpLeg  -21.7196 31.984 7.76428
LeftLeg  47.0468 8.2838 9.82133
LeftFoot  -7.77786 0.576488 -16.6946
LeftToes  -4.0021e-011 8.38769e-011 -3.99229e-011
336
root  -3.64204 37.2804 -36.0937 -168.216 -85.7379 167.352
RightUpLeg  -21.4547 -24.4444 -11.1826
RightLeg  38.6918 -7.67262 -6.81588
RightFoot  -7.55736 -0.466737 12.3911
RightToes  -1.33073e-015 0 -3.6325e-017
Spine  21.9009 0.339878 0.26711
Spine1  -14.7507 0.592491 -3.16959
HEad  -12.4473 14.5803 -4.24081
LeftShoulder1  0.447752 0.942716 -9.96096
LeftArm  -50.3305 8.05099 -30.1829
LeftForeArm  44.6638 -77.5884 -100.976
LeftHand  -0.41926 3.80992 30.5055
RightShoulder  0.486475 -0.985751 12.2734
RightArm  -59.8611 -16.0657 30.1191
RightForeArm  42.5406 78.1025 85.8547
RightHand  -2.65439 13.9469 -16.0589
LeftUpLeg  -26.6245 34.9975 5.29481
LeftLeg  57.3963 4.42268 7.99531
LeftFoot  -11.0574 0.114175 -17.9586
LeftToes  -4.0021e-011 8.38769e-011 -3.99229e-011
337
root  -3.43902 35.5922 -36.4327 178.399 -85.1412 179.681
RightUpLeg  -26.735 -24.4525 -10.0697
RightLeg  50.2676 -5.50859 -7.44852
RightFoot  -12.5948 0.0401688 11.645
RightToes  -1.33073e-015 0 -3.6325e-017
Spine  24.5246 0.277669 1.26509
Spine1  -15.7537 0.698134 -3.06744
HEad  -12.5064 15.3128 -2.83693
LeftShoulder1  0.0127216 3.38364 -3.6604
LeftArm  -52.5387 1.77473 -25.4148
LeftForeArm  38.61 -77.7712 -94.2829
LeftHand  -0.561836 3.19928 29.5232
RightShoulder  0.146248 -2.48553 6.9204
RightArm  -63.1117 -10.8312 25.9628
RightForeArm  27.6008 77.7074 77.532
RightHand  -2.31739 7.43101 -22.5669
LeftUpLeg  -31.5126 37.4848 3.56617
LeftLeg  66.6844 2.73715 7.82414
LeftFoot  -12.4869 -0.0963285 -17.0312
LeftToes  -4.0021e-011 8.38769e-011 -3.99229e-011
338
root  -3.11093 33.8016 -36.6195 151.565 -83.6489 -153.934
RightUpLeg  -32.0499 -24.0933 -6.65113
RightLeg  59.906 -4.25901 -8.40987
RightFoot  -16.4548 0.377309 10.8792
RightToes  -1.33073e-015 0 -3.6325e-017
Spine  27.9698 0.137776 4.32865
Spine1  -18.0747 1.12837 -2.3673
HEad  -13.6367 14.9148 -4.30761
LeftShoulder1  -0.0937738 5.50197 4.13073
LeftArm  -57.3189 -4.09328 -18.6729
LeftForeArm  18.448 -77.2983 -73.7017
LeftHand  -0.707619 2.53676 28.4192
RightShoulder  -0.0320067 -3.86485 0.771256
RightArm  -67.8911 -5.87412 19.2817
RightForeArm  4.80608 76.4298 65.5962
RightHand  -0.853551 -2.78882 -33.0416
LeftUpLeg  -36.2909 38.0923 3.43146
LeftLeg  73.6306 2.5899 11.153
LeftFoot  -16.9891 -0.606867 -14.6143
LeftToes  -4.0021e-011 8.38769e-011 -3.99229e-011
339
root  -2.68798 32.1295 -36.7246 131.527 -81.4458 -133.403
RightUpLeg  -37.6591 -24.3822 -2.35878
RightLeg  67.7253 -3.11948 -9.06057
RightFoot  -19.1338 0.619136 10.9563
RightToes  -1.33073e-015 0 -3.6325e-017
Spine  30.8355 0.185373 7.13759
Spine1  -18.5693 1.85903 -0.496612
HEad  -19.7981 12.9438 -10.3934
LeftShoulder1  0.119163 8.19916 12.3719
LeftArm  -64.6398 -7.21657 -13.7744
LeftForeArm  -5.1962 -74.4903 -51.5232
LeftHand  -0.528719 3.35403 30.0785
RightShoulder  -0.0632809 -5.34226 -5.51524
RightArm  -72.6269 -1.14823 7.60027
RightForeArm  -22.2041 70.8424 39.6584
RightHand  -1.29778 -1.03313 -33.9536
LeftUpLeg  -40.7387 36.1057 4.16492
LeftLeg  78.4719 2.7354 17.3182
LeftFoot  -25.4127 -1.34299 -12.0492
LeftToes  -4.0021e-011 8.38769e-011 -3.99229e-011
340
root  -2.37035 30.9375 -36.8486 120.249 -80.3923 -121.751
RightUpLeg  -41.4715 -25.807 0.126324
RightLeg  73.0734 -2.12686 -8.89822
RightFoot  -20.8934 0.804048 11.2996
RightToes  -1.33073e-015 0 -3.6325e-017
Spine  32.4411 0.548968 7.73493
Spine1  -16.0727 2.40801 2.37756
HEad  -27.5536 12.6532 -13.6172
LeftShoulder1  0.614518 11.3906 18.5907
LeftArm  -72.5805 -7.64007 -11.8926
LeftForeArm  -20.3478 -70.7399 -38.5148
LeftHand  -0.00776299 5.33131 34.0645
RightShoulder  0.0115829 -6.66332 -10.1093
RightArm  -77.8561 -0.276855 -2.30193
RightForeArm  -37.1526 62.3389 24.9499
RightHand  -1.969 1.34567 -33.2437
LeftUpLeg  -43.3246 32.7384 5.00897
LeftLeg  81.4281 2.5016 22.5798
LeftFoot  -32.1735 -1.84953 -11.0428
LeftToes  -4.0021e-011 8.38769e-011 -3.99229e-011
341
root  -2.36514 30.4776 -37.0436 113.75 -81.1612 -115.973
RightUpLeg  -41.6352 -27.7596 -0.433397
RightLeg  75.5596 -1.57799 -8.33255
RightFoot  -22.2957 0.921054 11.1565
RightToes  -1.33073e-015 0 -3.6325e-017
Spine  33.0547 0.930311 6.60193
Spine1  -13.1777 2.47305 3.78987
HEad  -31.897 12.1995 -14.393
LeftShoulder1  0.987955 12.5841 22.0907
LeftArm  -78.1446 -6.97007 -13.2937
LeftForeArm  -22.5337 -70.1989 -37.4015
LeftHand  0.47464 6.80583 36.897
RightShoulder  0.0551412 -6.81557 -11.4528
RightArm  -79.6498 -3.01084 -6.08423
RightForeArm  -41.161 58.7989 21.6896
RightHand  -2.33092 2.73227 -32.7068
LeftUpLeg  -43.0816 30.228 5.3561
LeftLeg  82.7111 2.0643 23.6386
LeftFoot  -33.8433 -2.08728 -11.492
LeftToes  -4.0021e-011 8.38769e-011 -3.99229e-011
342
root  -2.61446 30.921 -37.1417 112.629 -82.6953 -116.012
RightUpLeg  -38.6569 -28.5681 -2.78957
RightLeg  74.1549 -1.73954 -8.08067
RightFoot  -22.3264 0.914482 11.0631
RightToes  -1.33073e-015 0 -3.6325e-017
Spine  32.7057 1.06756 5.45356
Spine1  -12.2262 2.37673 2.61157
HEad  -29.2655 11.407 -11.8252
LeftShoulder1  0.8185 10.7678 22.3463
LeftArm  -78.6641 -6.88794 -17.1286
LeftForeArm  -6.57818 -74.6253 -53.4799
LeftHand  0.482473 6.82115 36.8307
RightShoulder  -0.00546389 -5.80408 -9.12725
RightArm  -77.8043 -6.21269 -2.0924
RightForeArm  -34.3233 64.8884 28.5645
RightHand  -2.44526 3.4759 -31.4999
LeftUpLeg  -40.5506 29.6753 5.15106
LeftLeg  81.5028 2.37269 22.0035
LeftFoot  -31.378 -1.98205 -12.2437
LeftToes  -4.0021e-011 8.38769e-011 -3.99229e-011
343
root  -2.94225 32.2753 -36.9619 116.991 -84.0626 -120.888
RightUpLeg  -34.03 -27.7922 -5.22865
RightLeg  68.0471 -2.73792 -8.19148
RightFoot  -19.595 0.704131 11.5968
RightToes  -1.33073e-015 0 -3.6325e-017
Spine  31.0026 1.01378 4.73644
Spine1  -12.5993 2.14746 1.12973
HEad  -24.3497 11.723 -8.83691
LeftShoulder1  0.332416 8.1723 17.6922
LeftArm  -72.7558 -7.60349 -21.9203
LeftForeArm  36.2042 -77.6593 -95.4503
LeftHand  0.236135 6.10676 35.4714
RightShoulder  -0.0521617 -4.60996 -4.13999
RightArm  -74.4268 -7.58204 7.46891
RightForeArm  -17.9755 72.111 42.59
RightHand  -2.53632 3.75677 -31.6543
LeftUpLeg  -36.7112 30.6796 4.79196
LeftLeg  77.0444 3.57428 19.1933
LeftFoot  -26.1374 -1.57416 -13.3062
LeftToes  -4.0021e-011 8.38769e-011 -3.99229e-011
